<?xml version='1.0' encoding='UTF-8'?>
<svg viewBox="-3.95 0 32 32" xmlns="http://www.w3.org/2000/svg" xmlns:xlink="http://www.w3.org/1999/xlink">
  <g transform="translate(-0.0002, 0)">
    <g transform="matrix(1.3389, 0, 0, 1.3389, 0, 0)">
      <g id="Layer_1" transform="translate(-6, -4.1)" style="enable-background:new 0 0 32 32">
        <g id="Mouse">
          <path d="M16, 4.1L16, 12L23.9, 12C23.5, 7.8 20.2, 4.5 16, 4.1z" fill="#727272" style="fill:#406ABF" />
        </g>
      </g>
    </g>
  </g>
  <g transform="translate(-0.0002, 0)">
    <g transform="matrix(1.3389, 0, 0, 1.3389, 0, 0)">
      <g id="Layer_1" transform="translate(-6, -4.1)" style="enable-background:new 0 0 32 32">
        <g id="Mouse">
          <path d="M14, 4.1C9.8, 4.5 6.5, 7.8 6.1, 12L14, 12L14, 4.1z" fill="#727272" style="fill:#406ABF" />
        </g>
      </g>
    </g>
  </g>
  <g transform="translate(-0.0002, 0)">
    <g transform="matrix(1.3389, 0, 0, 1.3389, 0, 0)">
      <g id="Layer_1" transform="translate(-6, -4.1)" style="enable-background:new 0 0 32 32">
        <g id="Mouse">
          <path d="M16, 14L14, 14L6, 14L6, 19C6, 24 10.1, 28 15, 28C19.9, 28 24, 24 24, 19L24, 14L16, 14z" fill="#727272" style="fill:#406ABF" />
        </g>
      </g>
    </g>
  </g>
  <g id="Layer_1" transform="translate(4.05, 16)" style="enable-background:new 0 0 16 16">
    <g id="User">
      <path d="M4, 4.9C3.9, 5.3 4.1, 5.5 4.3, 5.8C4.5, 6.1 4.2, 6.8 4.9, 6.8C4.9, 6.8 4.9, 6.9 4.9, 6.9C5.3, 8.4 6.2, 10 8, 10C9.8, 10 10.8, 8.4 11.2, 6.9C11.2, 6.9 11.2, 6.8 11.2, 6.8C11.9, 6.8 11.6, 6.1 11.8, 5.8C12, 5.5 12.1, 5.3 12, 4.9C11.9, 4.6 11.7, 4.7 11.6, 4.7C12.8, 1.6 10.9, 1.8 10.9, 1.8C10.9, 1.8 10.7, 0 7.2, 0C4, 0 3.6, 2.5 4.3, 4.7C4.3, 4.8 4.1, 4.8 4, 4.9z" style="fill:#646464" />
    </g>
  </g>
  <g id="Layer_1" transform="translate(4.05, 16)" style="enable-background:new 0 0 16 16">
    <g id="User">
      <path d="M10.7, 10C10.2, 10.9 9.3, 12 8, 12C6.7, 12 5.9, 10.9 5.3, 10C3.8, 12.1 0, 10.6 0, 15.1L0, 16L16, 16L16, 15.1C16, 10.6 12.2, 12.1 10.7, 10z" style="fill:#646464" />
    </g>
  </g>
  <g id="Layer_1" transform="translate(12.05, 0)" style="enable-background:new 0 0 16 16">
    <g id="Hyperlink_1_">
      <path d="M15.1, 2.3L13.7, 0.9C12.5, -0.3 10.6, -0.3 9.4, 0.9L6.9, 3.3C6.2, 4 5.9, 5.1 6.1, 6C5.1, 5.8 4.1, 6.1 3.4, 6.8L0.9, 9.3C-0.3, 10.5 -0.3, 12.4 0.9, 13.6L2.3, 15C3.5, 16.2 5.4, 16.2 6.6, 15L9, 12.6C9.7, 11.9 10, 10.8 9.8, 9.9C10.8, 10.1 11.8, 9.8 12.5, 9.1L14.9, 6.7C16.3, 5.5 16.3, 3.5 15.1, 2.3z" style="fill:#D94426" />
    </g>
  </g>
  <g id="Layer_1" transform="translate(12.05, 0)" style="enable-background:new 0 0 16 16">
    <g id="Hyperlink_1_">
      <path d="M7.7, 9.7L5.7, 11.7C5.3, 12.1 4.7, 12.1 4.3, 11.7C3.9, 11.3 3.9, 10.7 4.3, 10.3L6.3, 8.3L6.3, 8.3C5.9, 7.9 5.2, 7.9 4.8, 8.3L2.3, 10.8C1.9, 11.2 1.9, 11.9 2.3, 12.3L3.8, 13.8C4.2, 14.2 4.9, 14.2 5.3, 13.8L7.8, 11.3C8.1, 10.8 8.1, 10.2 7.7, 9.7L7.7, 9.7z" fill="#FFFFFF" class="White" />
    </g>
  </g>
  <g id="Layer_1" transform="translate(12.05, 0)" style="enable-background:new 0 0 16 16">
    <g id="Hyperlink_1_">
      <path d="M13.7, 3.8L12.2, 2.3C11.8, 1.9 11.1, 1.9 10.7, 2.3L8.3, 4.8C7.9, 5.2 7.9, 5.9 8.3, 6.3L8.3, 6.3L10.3, 4.3C10.7, 3.9 11.3, 3.9 11.7, 4.3C12.1, 4.7 12.1, 5.3 11.7, 5.7L9.7, 7.7L9.7, 7.7C10.1, 8.1 10.8, 8.1 11.2, 7.7L13.7, 5.2C14.1, 4.8 14.1, 4.2 13.7, 3.8z" fill="#FFFFFF" class="White" />
    </g>
  </g>
</svg>