<svg version="1.0" xmlns="http://www.w3.org/2000/svg"
 width="32" height="32" viewBox="0 0 1357.000000 1769.000000"
 preserveAspectRatio="xMidYMid meet">
<g transform="translate(0.000000,1769.000000) scale(0.100000,-0.100000)"
fill="#999" stroke="none">
<path d="M5750 16264 c-64 -29 -75 -32 -130 -39 -30 -3 -68 -13 -85 -21 -40
-18 -246 -71 -315 -80 -36 -5 -70 -17 -100 -38 -25 -17 -47 -30 -50 -29 -3 1
-12 -5 -21 -13 -10 -9 -44 -19 -78 -24 -52 -7 -69 -15 -118 -58 -62 -52 -126
-92 -148 -92 -7 0 -35 -16 -60 -36 -65 -49 -135 -90 -167 -98 -15 -3 -35 -15
-45 -25 -10 -10 -47 -35 -82 -55 -35 -20 -94 -63 -130 -95 -76 -66 -124 -91
-175 -91 -20 0 -66 -13 -103 -30 -36 -16 -71 -30 -77 -30 -6 0 -23 -6 -38 -14
-14 -8 -44 -17 -66 -21 -49 -8 -68 -27 -86 -88 -8 -26 -28 -63 -45 -82 -16
-19 -36 -54 -42 -77 -14 -46 -43 -87 -128 -183 -30 -33 -73 -89 -96 -125 -24
-36 -53 -74 -65 -85 -33 -30 -159 -190 -215 -274 -28 -41 -61 -90 -75 -109
-42 -59 -68 -98 -129 -192 -60 -92 -70 -111 -104 -190 -6 -14 -21 -38 -32 -55
-12 -16 -30 -52 -40 -80 -11 -27 -38 -78 -62 -113 -24 -35 -43 -72 -43 -82 0
-10 -4 -22 -10 -25 -13 -8 -66 -124 -80 -174 -6 -22 -15 -43 -20 -46 -6 -3
-10 -14 -10 -24 0 -10 -12 -35 -27 -54 -66 -87 -107 -161 -114 -206 -18 -121
-32 -168 -65 -212 -19 -26 -45 -83 -60 -130 -14 -46 -36 -109 -49 -139 -35
-80 -58 -253 -51 -375 10 -180 18 -249 31 -270 18 -28 26 -80 35 -220 8 -120
23 -202 41 -219 5 -6 9 -25 9 -42 0 -18 5 -36 10 -39 6 -3 10 -26 10 -49 0
-24 7 -60 15 -80 22 -53 66 -283 59 -310 -3 -14 2 -38 12 -57 19 -37 38 -117
55 -224 6 -38 17 -77 24 -85 7 -8 16 -34 20 -57 4 -24 11 -45 16 -49 5 -3 9
-14 9 -25 0 -16 28 -75 77 -164 21 -37 44 -140 42 -180 -7 -96 -1 -120 41
-165 22 -23 42 -52 46 -64 4 -12 11 -27 18 -35 6 -8 11 -36 12 -62 1 -44 -1
-49 -22 -49 -12 0 -24 6 -27 13 -9 24 -21 -4 -21 -50 -1 -28 4 -48 12 -50 6
-3 12 2 12 10 0 9 12 24 27 35 l27 20 28 -36 c16 -20 26 -42 23 -49 -8 -23 18
-91 41 -104 28 -15 52 -2 99 55 29 36 37 55 43 108 5 43 16 74 30 93 17 22 21
36 16 62 -5 27 -1 40 22 71 24 30 29 47 29 92 0 30 4 62 9 70 14 21 14 99 0
93 -21 -8 -24 26 -4 37 11 6 20 19 20 30 0 17 5 19 33 13 17 -3 36 -9 41 -13
11 -11 -1 -30 -20 -30 -24 0 -16 -20 14 -31 15 -6 50 -22 77 -34 51 -23 60
-24 179 -1 20 4 37 -1 54 -14 13 -11 38 -20 53 -20 23 0 29 -5 29 -20 0 -41
95 -105 139 -93 14 4 24 -3 35 -26 9 -17 24 -31 34 -32 58 -3 92 2 132 20 25
11 59 21 76 21 21 0 36 7 45 21 11 16 27 22 65 24 95 5 119 26 69 62 -73 51
-70 45 -55 99 8 29 28 63 48 84 32 33 34 34 60 19 15 -9 25 -22 23 -30 -13
-46 -9 -70 15 -79 13 -5 30 -22 36 -37 27 -62 69 -114 91 -112 12 1 29 -1 38
-5 20 -8 94 13 159 44 31 16 67 23 121 25 43 2 86 8 97 14 31 16 82 80 82 101
0 23 19 106 31 135 4 11 11 30 14 43 4 12 12 22 20 22 7 0 26 16 42 36 l29 36
98 3 c54 2 101 6 103 9 3 3 14 1 24 -4 12 -7 26 -6 44 2 21 9 46 9 113 -1 48
-6 101 -17 119 -23 46 -16 63 1 63 64 0 46 -2 50 -32 63 -35 14 -71 49 -81 78
-4 9 -20 20 -37 23 -36 8 -94 69 -86 91 4 8 -6 29 -20 46 -21 25 -25 38 -21
70 5 34 2 39 -21 50 -15 7 -47 27 -72 45 -35 27 -51 33 -76 29 -22 -4 -47 2
-80 19 -26 13 -61 24 -77 24 -17 0 -45 11 -63 25 -34 26 -97 34 -109 15 -10
-16 -25 -11 -25 8 0 11 -9 27 -20 37 -17 15 -43 18 -217 19 -195 1 -198 1
-219 25 -16 19 -25 22 -45 15 -13 -4 -28 -7 -33 -5 -5 1 -26 -5 -48 -14 -35
-13 -41 -14 -62 0 -18 12 -30 13 -50 5 -37 -14 -76 -13 -95 3 -9 7 -36 19 -61
26 -25 7 -55 17 -68 22 -33 13 -64 11 -105 -6 -20 -8 -48 -15 -62 -15 -14 0
-33 -4 -43 -9 -54 -26 -123 -44 -167 -43 -42 1 -55 -4 -91 -34 -44 -35 -84
-45 -84 -20 0 8 -7 22 -15 30 -13 12 -14 20 -5 36 9 17 6 29 -20 68 -24 37
-29 53 -24 77 4 16 8 53 9 80 1 28 9 64 18 80 31 62 31 90 -2 128 -39 44 -41
84 -6 97 23 9 25 14 19 47 -4 21 -13 46 -22 55 -13 16 -13 18 1 24 9 3 22 18
30 33 16 31 15 147 -2 164 -16 16 -14 47 3 47 19 0 56 52 56 78 0 10 -9 31
-20 45 -27 34 -25 42 10 67 17 12 37 34 45 50 13 25 13 29 -5 45 -26 24 -25
41 4 60 35 23 42 62 17 89 -34 36 -27 76 19 114 21 17 48 32 60 32 31 0 60 18
60 38 0 9 -12 35 -25 57 -29 46 -32 70 -10 79 12 4 14 16 10 53 -6 46 -5 49
34 88 23 21 41 47 41 56 0 19 36 49 58 49 18 0 62 45 91 93 18 30 22 48 18 83
-4 39 -1 50 27 84 17 21 35 39 40 39 19 2 116 73 113 84 -1 7 8 12 21 12 13 0
29 7 35 15 7 8 34 32 60 53 36 29 45 42 37 52 -5 6 -7 26 -4 44 5 23 13 33 33
37 14 3 40 11 56 19 17 8 42 17 58 21 15 3 31 12 35 19 4 7 22 20 41 29 28 15
32 22 29 47 -9 60 61 91 199 89 51 -1 113 21 113 40 0 14 34 12 48 -2 8 -8 15
-8 25 0 19 16 152 19 170 4 12 -10 26 -9 73 7 33 12 62 17 68 12 6 -5 36 -14
66 -21 30 -7 73 -21 96 -31 22 -10 71 -21 110 -24 60 -6 73 -4 94 13 24 20 25
20 52 1 15 -11 46 -26 69 -34 38 -14 48 -14 92 1 28 9 79 16 120 16 43 -1 81
5 96 13 14 8 47 17 73 20 26 3 50 10 53 15 10 15 147 1 190 -20 127 -60 152
-66 179 -41 29 27 82 34 78 10 -2 -13 9 -18 45 -22 26 -3 56 -2 67 2 11 5 32
3 46 -2 33 -13 60 -3 67 22 4 17 8 18 31 8 15 -6 28 -12 30 -13 2 -1 -6 -17
-18 -36 -17 -30 -18 -37 -7 -47 27 -22 69 -17 86 9 9 14 24 33 34 43 17 17 19
17 47 0 17 -9 30 -23 30 -29 0 -6 9 -14 20 -17 11 -3 29 -21 41 -41 11 -20 24
-36 28 -36 4 0 13 -11 19 -24 6 -14 36 -43 66 -66 39 -30 57 -50 61 -73 9 -42
42 -77 74 -77 14 -1 37 -7 51 -15 14 -8 35 -14 48 -15 26 0 26 0 8 -36 -19
-36 -6 -60 36 -67 42 -6 76 15 80 50 2 21 13 33 43 49 22 11 46 32 53 47 7 15
20 27 28 27 20 0 18 16 -3 25 -13 5 -5 11 32 20 28 7 52 11 54 9 2 -2 -1 -25
-7 -52 -8 -35 -8 -50 1 -58 19 -18 107 -34 134 -23 30 11 81 1 114 -23 25 -19
96 -27 118 -14 6 4 20 2 32 -5 30 -15 61 16 64 66 2 30 -3 39 -24 50 -31 17
-71 51 -71 60 0 3 10 19 21 35 24 32 20 60 -10 60 -21 0 -71 53 -71 75 0 8 4
25 9 38 8 20 15 23 40 19 17 -2 34 -8 37 -13 3 -5 16 -9 30 -9 17 0 24 -6 24
-18 0 -11 9 -27 20 -37 11 -10 20 -25 20 -34 0 -30 107 -125 130 -115 42 16
78 15 110 -5 19 -11 35 -27 36 -36 3 -22 24 -45 39 -45 8 0 27 12 45 26 29 25
32 25 49 10 10 -9 25 -16 33 -16 9 0 21 -7 28 -15 7 -9 29 -15 52 -15 26 0 41
-5 45 -15 3 -9 15 -15 27 -13 15 2 22 -3 24 -18 6 -43 -77 -55 -120 -16 -16
13 -20 13 -43 -2 -26 -17 -34 -54 -12 -60 77 -22 103 -31 112 -38 5 -4 16 -8
25 -8 10 0 31 -7 49 -16 27 -13 32 -20 27 -40 -5 -18 0 -30 20 -46 14 -13 31
-32 37 -43 15 -26 9 -133 -8 -158 -12 -16 -11 -24 3 -53 9 -19 21 -33 26 -31
15 5 38 55 43 91 5 43 44 80 73 71 29 -9 132 -114 125 -126 -4 -5 -15 -9 -25
-9 -21 0 -36 -33 -23 -52 4 -7 6 -37 4 -65 -3 -51 -2 -53 33 -74 40 -23 44
-38 20 -74 -14 -22 -14 -26 3 -49 10 -13 29 -32 43 -41 23 -16 80 -86 80 -99
0 -3 -9 -6 -20 -6 -13 0 -24 -10 -31 -27 -6 -16 -15 -36 -20 -45 -14 -27 -11
-48 11 -75 13 -17 17 -33 13 -54 -4 -22 0 -36 14 -52 45 -51 62 -95 64 -170 1
-42 -3 -83 -10 -96 -10 -18 -10 -29 3 -56 9 -18 16 -51 16 -72 0 -22 9 -58 20
-81 11 -22 20 -45 20 -51 0 -5 7 -17 16 -26 21 -21 11 -45 -21 -45 -33 0 -32
-10 5 -46 16 -16 30 -39 30 -52 0 -12 7 -25 15 -28 8 -4 15 -12 15 -20 0 -23
-92 -19 -112 5 -13 16 -25 19 -52 14 -37 -6 -45 4 -24 25 7 7 10 12 8 13 -3 0
-53 3 -111 6 -101 5 -107 4 -127 -17 -17 -18 -27 -21 -56 -16 -20 4 -37 2 -41
-4 -11 -17 -71 -11 -89 9 -10 10 -34 22 -54 27 -53 11 -251 8 -295 -4 -25 -7
-39 -7 -43 0 -9 14 -80 2 -125 -22 -45 -23 -65 -26 -107 -16 -23 5 -40 3 -55
-7 -31 -20 -185 -45 -285 -47 -92 -1 -104 -4 -147 -35 -51 -36 -106 -48 -185
-41 -72 7 -174 -9 -245 -40 -16 -7 -33 -10 -39 -7 -5 3 -6 1 -3 -4 9 -14 -44
-33 -88 -33 -18 0 -38 -7 -45 -15 -7 -8 -22 -15 -34 -15 -43 0 -166 -120 -166
-161 0 -13 -5 -41 -11 -62 -6 -23 -7 -43 -1 -50 19 -25 21 -47 5 -62 -14 -15
-14 -18 7 -40 12 -13 32 -25 44 -27 11 -2 21 -10 21 -18 0 -11 -13 -16 -44
-18 -45 -3 -80 -30 -81 -63 0 -9 -9 -28 -20 -42 -24 -30 -25 -41 -5 -57 20
-17 19 -37 -4 -45 -10 -3 -28 -25 -41 -50 -27 -52 -23 -78 22 -147 24 -39 35
-48 59 -48 16 0 29 -4 29 -9 0 -11 -25 -21 -52 -21 -19 0 -19 -1 -4 -25 9 -13
16 -42 16 -65 0 -43 12 -50 51 -30 15 9 19 22 19 68 0 32 -5 63 -11 69 -8 8
-5 22 10 50 17 34 29 44 82 63 34 13 71 34 82 47 14 15 32 23 53 23 17 0 37 7
45 16 13 16 35 16 124 -3 31 -6 41 -14 43 -31 2 -14 10 -22 23 -22 30 0 34 3
34 27 1 35 22 52 59 46 37 -6 109 26 119 52 9 22 27 19 27 -5 0 -14 14 -27 45
-42 35 -17 45 -28 46 -47 1 -15 2 -44 3 -67 1 -22 12 -59 24 -82 34 -65 39
-76 52 -103 15 -34 88 -81 108 -70 10 6 27 0 50 -16 21 -14 42 -21 51 -17 53
23 111 27 167 12 63 -18 80 -15 89 13 4 10 10 19 15 19 4 0 27 12 50 27 39 26
41 30 36 63 -6 40 6 59 55 96 43 32 69 30 103 -5 24 -24 26 -32 17 -50 -7 -12
-16 -21 -21 -21 -13 0 -31 -98 -21 -118 5 -9 13 -29 19 -43 7 -19 22 -29 54
-37 43 -12 196 -19 233 -11 12 2 20 -1 20 -11 1 -20 26 -14 47 10 9 11 25 20
35 20 29 0 72 54 89 110 12 41 18 48 45 54 32 6 45 16 71 58 10 14 27 30 39
33 18 6 20 12 14 42 l-6 36 55 -5 c38 -3 60 -1 67 8 14 17 71 9 132 -19 l49
-21 26 32 c15 18 34 32 43 32 30 0 70 40 67 68 -3 22 3 26 42 38 34 10 52 11
72 3 18 -7 32 -8 46 0 53 28 109 13 151 -42 13 -18 25 -18 82 -1 12 3 23 -8
38 -38 25 -51 15 -66 -28 -43 -17 9 -36 13 -41 10 -18 -11 -10 -47 16 -79 37
-44 94 -135 94 -150 0 -7 -13 -22 -30 -34 -20 -15 -30 -31 -30 -48 0 -37 35
-80 70 -87 27 -6 30 -10 30 -44 0 -21 -6 -61 -14 -90 -13 -49 -13 -53 10 -87
26 -38 26 -41 -7 -151 -11 -38 -10 -44 15 -83 32 -52 33 -62 1 -62 -17 0 -29
-9 -40 -30 -15 -30 -15 -74 1 -181 6 -37 -5 -54 -41 -61 -11 -2 -24 -13 -30
-25 -6 -11 -17 -28 -24 -37 -7 -9 -10 -23 -7 -32 4 -10 -1 -25 -10 -35 -24
-26 -34 -84 -21 -119 12 -32 3 -81 -29 -155 -18 -42 -19 -76 -2 -86 6 -4 8
-30 3 -68 -4 -37 -3 -66 3 -74 5 -6 10 -23 10 -37 -1 -58 74 -133 117 -117 20
8 50 -22 36 -36 -8 -8 -20 -6 -41 6 -23 14 -30 15 -30 5 0 -8 -12 -13 -32 -13
-27 0 -34 -5 -41 -30 -6 -16 -14 -40 -20 -53 -11 -24 -10 -26 32 -92 10 -14
11 -21 4 -17 -19 12 -17 -37 3 -75 15 -30 15 -32 -2 -45 -22 -16 -36 -17 -51
-2 -34 34 -62 -47 -37 -108 12 -26 11 -36 -1 -59 -9 -18 -11 -32 -5 -39 10
-12 7 -121 -4 -132 -7 -8 21 -54 41 -66 18 -11 17 -66 -2 -73 -8 -4 -15 -14
-15 -24 0 -9 -26 -45 -59 -79 -52 -54 -58 -65 -56 -99 1 -21 8 -48 15 -61 8
-15 12 -65 13 -135 0 -94 -3 -117 -21 -153 -16 -30 -30 -43 -50 -48 -24 -5
-28 -10 -24 -31 2 -13 15 -33 28 -43 13 -10 24 -28 24 -40 0 -16 -6 -21 -28
-21 -36 0 -52 -31 -52 -100 0 -54 -10 -62 -46 -36 -17 13 -22 12 -52 -17 -96
-93 -129 -132 -143 -169 -18 -47 -39 -61 -39 -28 0 19 -4 21 -27 16 -42 -10
-65 -42 -57 -81 3 -19 1 -35 -5 -39 -15 -10 -14 -53 2 -63 8 -4 24 -23 37 -41
l24 -33 17 22 c12 16 23 20 42 17 23 -5 26 -1 37 53 13 60 29 76 63 63 9 -3
32 -1 52 6 34 11 35 13 35 60 0 27 -5 52 -10 55 -13 8 -3 43 16 63 8 7 14 18
14 23 0 16 20 10 45 -16 28 -27 32 -45 10 -45 -13 0 -20 -18 -16 -42 0 -5 -6
-8 -14 -8 -18 0 -20 -37 -3 -42 19 -7 1 -37 -37 -59 -37 -22 -41 -30 -25 -59
13 -24 3 -50 -20 -50 -10 0 -33 -17 -53 -39 -29 -32 -36 -49 -41 -97 -6 -64
-3 -129 8 -156 6 -12 0 -21 -23 -32 -17 -9 -39 -26 -50 -37 -11 -12 -26 -19
-34 -16 -22 8 -38 -7 -42 -42 -4 -34 -38 -98 -62 -118 -8 -6 -15 -33 -17 -61
-2 -42 1 -52 16 -55 24 -7 23 -34 -2 -47 -11 -6 -20 -17 -20 -24 0 -8 -7 -19
-15 -26 -8 -7 -15 -25 -15 -41 0 -16 -11 -40 -27 -58 -29 -31 -119 -81 -147
-81 -8 0 -32 -18 -52 -40 -20 -22 -45 -42 -55 -45 -23 -8 -34 -57 -18 -83 13
-21 0 -77 -18 -77 -5 0 -18 -8 -28 -18 -55 -55 -157 -46 -179 17 -4 11 -12 16
-21 12 -8 -3 -22 2 -31 11 -13 14 -17 14 -24 2 -10 -16 -116 -24 -125 -9 -13
21 -12 110 1 121 19 16 17 39 -5 68 -16 21 -30 26 -85 29 -57 4 -65 2 -60 -11
4 -12 -5 -21 -33 -34 -27 -13 -39 -26 -41 -43 -2 -14 -12 -33 -23 -43 -10 -10
-20 -24 -20 -32 -1 -8 -2 -21 -3 -27 -1 -7 8 -16 19 -19 17 -5 15 -8 -15 -21
-33 -14 -36 -14 -49 7 -23 37 -65 49 -113 33 -33 -10 -46 -23 -69 -63 -16 -27
-31 -57 -35 -66 -7 -20 -60 -39 -109 -39 -62 0 -164 -21 -180 -37 -11 -10 -14
-31 -10 -80 3 -48 0 -69 -11 -80 -7 -8 -14 -23 -14 -33 0 -10 -12 -27 -27 -39
-23 -16 -26 -23 -17 -38 9 -15 3 -25 -40 -67 l-50 -49 -101 6 c-61 3 -117 12
-144 22 -36 15 -62 17 -169 12 -110 -6 -133 -10 -182 -34 -30 -16 -59 -33 -65
-39 -18 -21 -111 -26 -145 -9 -16 8 -33 16 -37 16 -5 1 -19 5 -31 10 -13 5
-28 7 -32 4 -5 -3 -26 -6 -47 -7 -28 -1 -50 -11 -84 -40 -47 -39 -47 -39 -101
-29 -56 10 -73 8 -181 -25 -57 -17 -60 -17 -110 3 -72 28 -173 46 -194 35 -10
-6 -41 -13 -69 -17 -41 -5 -52 -3 -57 8 -3 8 -19 18 -35 22 -16 3 -41 19 -55
34 -18 21 -37 30 -76 35 -36 5 -54 12 -61 27 -6 11 -22 24 -36 29 -13 5 -28
20 -33 32 -9 23 -42 51 -120 101 -35 22 -51 27 -77 22 -29 -5 -37 -1 -72 34
-22 22 -57 69 -77 105 -27 46 -43 63 -54 59 -13 -4 -13 -3 -3 5 28 19 9 47
-42 59 -26 7 -56 19 -65 28 -23 20 -37 19 -54 -5 -11 -15 -25 -21 -53 -20 -22
1 -51 -2 -66 -6 -22 -5 -29 -2 -34 12 -13 41 -30 67 -52 82 -20 13 -28 13 -74
-2 -49 -16 -119 -74 -146 -122 -7 -12 -15 -15 -28 -9 -11 5 -44 14 -74 19 -41
8 -57 17 -66 34 -7 13 -27 40 -46 60 -19 21 -43 60 -53 87 -10 28 -37 73 -59
101 -23 28 -46 60 -52 69 -5 10 -15 15 -21 12 -18 -11 -4 -77 28 -130 16 -27
29 -51 29 -55 0 -4 6 -19 14 -34 8 -15 17 -42 21 -60 3 -18 10 -44 15 -58 31
-95 39 -149 45 -320 3 -102 8 -222 10 -267 4 -93 -15 -156 -64 -204 -14 -14
-42 -43 -60 -65 -26 -29 -48 -42 -85 -52 -28 -7 -57 -19 -66 -26 -19 -17 -100
-56 -115 -56 -7 0 -30 -19 -52 -42 -22 -24 -59 -54 -83 -68 -23 -14 -79 -58
-124 -98 -44 -40 -92 -75 -106 -78 -14 -3 -50 -14 -80 -25 -30 -12 -82 -28
-115 -37 -33 -10 -95 -38 -137 -65 -42 -26 -93 -54 -114 -63 -22 -9 -52 -27
-67 -40 -16 -13 -37 -24 -47 -24 -9 0 -23 -7 -30 -15 -7 -8 -24 -15 -38 -15
-16 0 -43 -17 -78 -50 -34 -33 -62 -50 -78 -50 -14 0 -28 -4 -31 -10 -3 -5
-16 -10 -27 -10 -12 0 -32 -9 -44 -21 -12 -11 -53 -29 -92 -38 -38 -10 -90
-32 -115 -50 -25 -17 -53 -31 -61 -31 -9 0 -52 -25 -97 -55 -45 -30 -88 -55
-96 -55 -8 0 -40 -16 -71 -35 -32 -19 -81 -39 -111 -45 -49 -9 -149 -66 -251
-142 -62 -46 -97 -64 -128 -66 -52 -4 -132 -45 -200 -103 -35 -29 -69 -54 -75
-54 -7 -1 -25 -7 -42 -14 -82 -35 -114 -55 -134 -82 -12 -16 -31 -29 -42 -29
-16 0 -20 -5 -16 -19 7 -29 -8 -48 -26 -32 -13 10 -23 8 -54 -12 -55 -35 -67
-51 -48 -67 22 -19 18 -35 -15 -63 -16 -14 -30 -33 -30 -41 0 -9 -4 -16 -9
-16 -13 0 -77 62 -83 79 -9 29 -38 3 -38 -34 0 -23 -6 -38 -15 -42 -9 -3 -22
-21 -30 -39 -15 -37 -26 -42 -45 -19 -15 18 -42 19 -58 3 -7 -7 -12 -31 -12
-55 l0 -43 -85 0 c-90 0 -96 -4 -69 -45 25 -38 7 -51 -26 -20 -30 28 -34 28
-85 -4 -16 -11 -43 -20 -60 -20 -48 -2 -61 -15 -46 -47 8 -19 9 -30 1 -38 -17
-17 -28 5 -33 59 -3 48 -6 -318 -13 -1612 l-3 -613 3092 0 3092 0 -37 25 c-20
14 -44 25 -52 25 -8 0 -28 11 -44 25 -17 14 -34 25 -39 25 -5 0 -23 14 -41 30
-18 17 -37 30 -43 30 -5 0 -9 8 -9 18 0 29 -52 72 -87 72 -23 0 -33 6 -38 19
-3 11 -14 23 -25 26 -31 10 -127 108 -143 148 -14 33 -20 37 -53 37 -35 0 -36
1 -20 18 15 18 15 20 -4 42 -11 13 -20 31 -20 40 0 10 -6 28 -13 41 -16 32
-97 109 -113 109 -7 0 -21 11 -32 25 -11 14 -27 25 -36 25 -33 0 -116 112
-116 157 0 17 -13 38 -39 63 -21 20 -45 54 -52 76 -7 21 -23 50 -34 64 -12 14
-32 39 -44 57 -12 18 -34 38 -49 45 -31 15 -40 50 -22 84 11 19 9 27 -9 50
-11 15 -21 32 -21 38 0 6 -47 59 -105 117 -69 70 -105 114 -105 128 0 13 -11
37 -25 55 -16 21 -25 46 -25 68 0 22 -7 41 -20 53 -11 10 -20 26 -20 37 0 11
-7 18 -19 18 -12 0 -21 9 -25 24 -3 14 -15 27 -25 31 -38 12 -71 46 -71 74 0
15 4 31 10 37 5 5 6 24 0 48 -5 24 -5 47 1 57 12 24 13 22 -21 57 -16 18 -30
39 -30 48 0 21 29 43 56 44 48 0 54 60 11 107 -12 13 -17 29 -13 39 4 9 4 51
0 92 -6 61 -10 76 -25 79 -26 7 -24 37 3 56 20 13 21 18 10 37 -14 23 -7 60
11 60 7 0 31 -9 54 -19 39 -18 42 -18 57 -2 29 32 15 120 -30 187 -21 31 -24
42 -15 56 6 10 11 26 11 36 0 10 9 36 20 57 14 26 19 50 15 69 -3 18 0 35 9
45 30 33 18 161 -14 161 -20 0 -9 21 14 30 21 8 34 27 40 64 1 6 6 21 10 33 4
13 2 32 -4 43 -15 28 -9 33 42 35 61 2 68 -3 68 -42 0 -20 -4 -32 -10 -28 -5
3 -10 -3 -10 -15 0 -12 4 -19 9 -15 5 3 13 0 17 -6 12 -20 34 21 34 62 0 27
-6 42 -21 53 -16 11 -20 21 -15 40 5 21 1 28 -23 41 -17 8 -52 15 -79 15 -70
0 -98 32 -104 118 -2 35 -9 67 -14 70 -5 4 -16 20 -24 36 -8 17 -28 34 -45 39
-16 6 -34 16 -40 22 -5 7 -28 15 -51 18 -27 3 -50 14 -70 34 -16 16 -36 34
-45 39 -9 6 -22 43 -33 99 -29 148 -60 216 -68 148 -3 -25 -8 -29 -53 -36 -36
-6 -58 -16 -78 -37 -15 -17 -33 -30 -39 -30 -5 0 -27 -13 -48 -30 -30 -24 -48
-30 -84 -30 -25 0 -47 3 -47 8 -19 99 17 163 98 177 23 3 47 13 54 21 6 8 19
14 29 14 21 0 68 52 76 85 5 20 3 51 -10 145 -2 14 1 54 5 90 6 44 6 81 -2
116 -9 39 -9 60 1 88 13 40 27 45 61 17 21 -16 21 -21 10 -49 -8 -18 -11 -57
-8 -102 4 -81 7 -84 102 -140 28 -16 66 -50 85 -75 20 -27 50 -53 70 -61 19
-8 50 -35 69 -60 22 -28 45 -47 62 -51 40 -8 63 -36 56 -70 -7 -40 8 -63 43
-63 19 0 35 -9 48 -25 14 -17 30 -25 51 -25 38 0 41 -17 4 -22 -31 -3 -44 -38
-24 -62 6 -7 8 -27 5 -45 -7 -36 16 -71 47 -71 10 0 20 -4 23 -9 3 -4 20 -11
38 -15 30 -6 31 -7 12 -20 -17 -13 -18 -15 -2 -21 9 -4 22 -4 28 0 16 10 12
-4 -11 -36 -20 -29 -20 -31 -4 -65 13 -29 42 -51 75 -59 27 -6 55 -35 72 -73
49 -114 81 -170 94 -165 8 3 14 8 14 13 0 4 10 18 21 31 17 18 23 21 27 10 3
-8 23 -32 44 -53 22 -22 37 -45 34 -53 -2 -7 -21 -21 -40 -30 -23 -11 -36 -24
-36 -36 0 -14 -7 -19 -25 -19 -32 0 -31 -8 4 -56 35 -49 76 -77 101 -69 22 7
36 -11 21 -28 -13 -16 2 -87 21 -98 7 -5 22 -9 34 -9 11 0 29 -9 39 -20 10
-12 25 -18 33 -15 16 6 92 -61 92 -81 0 -5 9 -20 20 -32 16 -17 17 -22 6 -22
-19 0 -36 -30 -36 -63 0 -16 8 -28 25 -35 14 -6 25 -18 25 -27 0 -8 11 -17 25
-21 14 -3 31 -16 37 -28 6 -11 28 -36 49 -53 20 -18 50 -53 66 -78 15 -25 31
-45 36 -45 4 0 7 -6 7 -14 0 -25 50 -56 90 -56 20 0 51 -7 68 -16 31 -15 32
-16 25 -74 -5 -56 -4 -60 18 -69 24 -10 24 -10 2 -10 -36 -1 -29 -31 6 -31 17
0 33 -4 36 -10 3 -5 17 -10 29 -10 13 0 35 -9 49 -20 14 -11 28 -20 31 -20 4
0 20 -10 36 -21 16 -12 35 -19 44 -16 15 6 61 -24 85 -56 9 -13 20 -17 38 -12
21 5 24 3 19 -10 -3 -9 -6 -21 -6 -26 0 -6 -4 -8 -9 -5 -17 11 -61 -13 -61
-32 0 -17 10 -20 70 -24 65 -5 74 -8 107 -42 20 -20 42 -36 48 -36 7 0 20 -9
30 -20 20 -23 41 -26 47 -8 3 7 22 13 44 14 40 2 165 18 222 30 21 4 32 2 32
-5 0 -6 -10 -11 -22 -11 -20 0 -19 -3 9 -16 57 -29 66 -46 69 -141 2 -53 8
-89 15 -94 7 -4 32 -10 55 -14 24 -3 48 -13 52 -22 15 -25 48 -6 65 38 9 22
14 46 11 54 -3 7 -1 23 6 34 15 29 80 30 87 1 4 -15 14 -20 40 -20 26 0 36 -5
40 -19 4 -16 9 -17 33 -8 43 16 55 85 25 143 -8 15 -12 31 -9 36 7 11 38 10
50 -1 13 -14 43 -16 96 -7 35 5 46 11 41 22 -3 7 0 14 6 14 7 0 7 8 -1 26 -10
21 -9 31 5 57 13 23 16 49 13 95 -5 81 11 114 71 149 26 15 42 28 36 30 -5 2
-8 15 -5 28 5 28 -7 32 -39 13 -17 -11 -22 -10 -30 5 -6 10 -22 22 -35 27 -16
6 -24 17 -24 32 0 18 9 26 42 36 29 9 44 10 46 3 2 -6 14 -11 27 -11 23 0 55
44 55 77 0 7 10 13 23 13 12 0 39 3 60 6 31 6 36 4 32 -8 -4 -11 3 -17 26 -22
50 -10 69 -7 76 10 8 22 -14 34 -67 34 -36 0 -49 5 -64 25 -11 14 -29 25 -42
25 -26 0 -30 10 -13 27 8 8 6 18 -6 37 -16 24 -16 28 -1 51 22 34 20 78 -5
101 -17 15 -20 28 -17 71 l3 53 -34 0 c-18 0 -56 -12 -85 -27 -28 -14 -58 -29
-66 -33 -8 -4 -15 -21 -16 -39 -1 -18 -9 -37 -19 -45 -19 -14 -13 -56 8 -56 7
0 18 -14 24 -31 10 -26 16 -30 35 -26 27 7 51 -5 54 -27 2 -12 -6 -16 -31 -16
-29 0 -35 -4 -45 -35 -6 -19 -15 -35 -20 -35 -5 0 -12 -9 -15 -20 -9 -27 -84
-70 -123 -70 -17 0 -33 -4 -36 -9 -3 -5 -17 -11 -31 -13 -21 -4 -25 -1 -25 18
0 13 -3 23 -7 22 -13 -2 -47 15 -63 33 -30 34 -117 50 -142 26 -44 -42 -119
-52 -145 -20 -6 8 -16 12 -22 9 -5 -3 -21 -1 -36 6 -21 9 -31 9 -46 0 -32 -21
-76 -14 -110 16 -28 25 -30 31 -19 48 11 17 9 24 -11 45 -46 48 -97 72 -141
66 l-40 -5 7 53 c6 48 4 55 -20 79 -35 35 -63 34 -76 -4 -12 -33 -39 -40 -59
-15 -11 13 -10 18 5 29 11 8 19 31 23 65 2 28 9 54 13 57 5 3 9 16 9 29 0 33
10 55 25 55 8 0 11 9 8 24 -6 30 14 42 87 52 45 6 55 4 66 -11 12 -16 24 -17
101 -11 52 3 102 2 123 -4 25 -8 41 -7 58 2 19 10 28 9 52 -6 28 -16 56 -14
46 3 -3 4 32 3 76 -2 75 -9 82 -8 110 13 22 16 38 20 61 16 27 -5 37 -16 61
-67 16 -34 35 -63 43 -66 27 -10 63 7 69 34 9 33 62 82 91 83 12 0 28 9 36 21
13 18 18 19 37 9 16 -9 19 -14 10 -20 -6 -4 -10 -18 -8 -31 3 -21 8 -24 38
-20 19 1 48 10 64 20 16 9 37 20 47 26 11 5 19 21 19 35 0 14 9 36 20 50 16
21 21 23 32 12 11 -11 10 -16 -4 -26 -10 -7 -18 -25 -18 -40 0 -14 -4 -26 -9
-26 -5 0 -12 -12 -15 -26 -5 -20 -1 -33 16 -52 16 -17 19 -26 10 -29 -19 -7
-3 -23 23 -23 22 0 24 -2 15 -26 -8 -21 -7 -29 7 -40 17 -13 17 -15 1 -28 -31
-23 -22 -52 20 -69 l37 -15 -38 -17 c-50 -21 -46 -46 8 -60 22 -5 46 -14 53
-18 17 -11 15 -27 -3 -27 -8 0 -15 -9 -15 -20 0 -15 7 -20 29 -20 17 0 33 5
37 11 3 6 23 9 43 7 33 -3 37 -1 33 18 -4 22 -64 52 -70 34 -6 -18 -22 -11
-22 9 0 11 -5 23 -11 27 -6 3 -8 17 -4 32 4 15 1 28 -6 32 -8 5 -5 14 11 30
12 12 26 34 31 48 13 35 71 82 77 63 2 -7 13 -22 23 -32 22 -22 26 -79 6 -79
-15 0 -40 -47 -33 -59 3 -4 -4 -7 -16 -7 -12 1 -23 -5 -25 -11 -3 -7 0 -13 6
-13 5 0 22 -5 36 -10 24 -9 25 -12 14 -27 -12 -14 -11 -15 6 -10 11 3 32 9 48
13 27 6 39 34 14 34 -7 0 -20 9 -30 20 -16 19 -16 20 18 20 20 0 47 7 60 16
13 9 32 14 42 12 16 -3 18 -16 20 -98 1 -52 2 -98 2 -102 1 -5 26 -8 56 -8 37
0 55 -4 55 -12 0 -9 3 -9 9 1 5 8 7 20 5 26 -3 7 2 15 10 18 10 4 13 1 9 -9
-3 -7 -2 -14 3 -14 8 0 66 17 102 31 13 5 22 5 22 -1 0 -23 21 -7 27 20 3 17
11 30 17 30 6 0 17 14 24 32 9 25 9 35 -1 46 -10 13 -7 14 22 9 18 -4 37 -7
42 -7 5 0 9 -16 9 -35 0 -30 3 -35 24 -35 14 0 32 7 40 16 16 15 22 78 10 108
-7 18 -49 22 -60 5 -3 -6 -14 7 -25 30 -10 23 -25 41 -32 41 -19 0 -22 12 -22
95 0 65 2 70 23 73 12 2 22 9 22 15 1 16 69 67 90 67 9 0 23 -12 30 -28 l14
-27 4 24 c2 13 -1 28 -6 33 -16 16 -2 38 24 38 34 0 38 19 21 86 -13 52 -13
61 1 90 18 39 30 46 102 53 55 6 55 6 53 38 -3 38 12 51 27 23 6 -11 17 -20
25 -20 14 0 65 100 65 127 0 8 8 13 18 11 9 -1 23 1 30 6 11 6 10 11 -3 26
-23 25 -10 63 36 105 22 19 43 35 48 35 6 0 26 -9 45 -21 26 -15 48 -20 81
-17 45 3 62 -9 26 -19 -19 -5 -20 -9 -6 -48 4 -11 7 -34 6 -51 -1 -18 2 -35 8
-39 6 -3 11 -19 11 -35 0 -23 -7 -33 -32 -46 l-31 -16 31 -29 c36 -34 52 -37
52 -10 0 10 7 22 16 25 9 3 14 11 12 18 -6 17 62 74 97 82 27 6 32 3 49 -34
11 -22 19 -47 19 -55 0 -17 23 -20 32 -5 9 15 23 12 46 -11 l21 -21 -30 -20
c-25 -15 -35 -17 -51 -8 -12 6 -21 7 -22 3 -3 -25 4 -100 10 -111 7 -13 -19
-200 -34 -250 -10 -30 -54 -52 -103 -52 -31 0 -39 -4 -38 -17 1 -12 -11 -20
-38 -28 -34 -10 -40 -16 -43 -43 -6 -46 18 -51 81 -18 28 14 59 26 69 26 30 0
57 -19 57 -40 0 -11 6 -20 13 -20 30 1 93 30 125 59 42 37 48 38 54 8 6 -28
-32 -80 -59 -82 -10 0 -40 -11 -66 -24 -27 -13 -57 -21 -69 -18 -27 7 -118
-61 -143 -107 -16 -29 -17 -39 -7 -61 15 -34 10 -43 -32 -51 -26 -4 -38 -14
-51 -42 -10 -21 -22 -45 -26 -54 -6 -11 -3 -22 6 -32 20 -19 19 -32 -4 -48
-25 -18 -34 -53 -20 -80 8 -15 8 -23 1 -26 -5 -1 -31 -23 -56 -48 -41 -39 -45
-47 -34 -64 11 -17 8 -24 -22 -52 l-35 -33 33 -3 c28 -3 32 -7 32 -33 0 -16 6
-32 14 -35 8 -3 12 -13 9 -23 -3 -12 4 -25 17 -34 23 -16 19 -40 -5 -31 -17 7
-60 -35 -48 -46 4 -5 19 -10 33 -12 27 -3 61 -59 53 -88 -2 -9 11 -32 29 -53
34 -36 34 -36 73 -23 44 16 55 13 55 -13 0 -24 20 -41 49 -41 l26 -1 -27 -20
c-31 -23 -37 -49 -12 -49 9 0 27 9 41 20 14 11 31 20 38 20 6 0 39 14 73 30
34 17 69 30 77 30 13 0 55 79 55 105 0 7 -7 16 -16 19 -8 3 -12 11 -9 17 4 6
13 8 20 5 7 -2 28 11 46 30 28 29 31 36 19 44 -20 13 -19 13 -69 -20 -44 -30
-67 -36 -86 -22 -14 10 -18 42 -5 42 6 0 9 -4 5 -9 -14 -23 19 -20 50 4 20 14
58 33 85 41 34 10 50 20 50 32 1 24 36 63 52 57 7 -3 26 6 43 19 30 24 30 24
11 45 -15 17 -17 24 -8 33 7 7 12 20 12 30 0 13 -8 18 -31 18 -23 0 -30 4 -26
15 4 8 0 27 -8 42 -14 27 -14 28 11 31 34 4 40 -3 20 -23 -20 -20 -12 -35 18
-35 33 0 49 24 53 80 2 37 -1 49 -13 54 -9 4 -22 2 -28 -3 -14 -11 -59 5 -51
19 3 5 18 10 31 10 24 0 25 2 19 40 -5 29 -3 44 8 54 10 10 14 32 13 63 -2 38
3 55 23 82 18 24 22 36 13 39 -16 5 -16 44 0 61 11 10 9 15 -7 27 -19 14 -18
15 18 45 20 17 37 36 37 44 0 7 7 18 16 25 11 10 14 23 9 50 -5 27 -2 40 9 50
14 11 20 8 43 -14 23 -23 32 -26 65 -21 38 7 39 6 33 -18 -6 -21 -2 -28 22
-41 16 -8 35 -22 42 -30 10 -12 29 -14 87 -11 83 4 82 5 62 -71 -11 -41 -11
-47 5 -59 9 -7 17 -19 17 -27 0 -9 7 -21 15 -28 8 -7 15 -21 15 -31 0 -10 6
-22 14 -26 7 -4 19 -18 25 -31 7 -13 18 -21 26 -18 16 6 39 -19 30 -33 -8 -14
13 -51 29 -51 8 0 16 -10 19 -22 2 -13 8 -30 11 -39 5 -12 -2 -22 -27 -36 -32
-19 -33 -22 -30 -74 1 -30 -3 -67 -9 -82 -9 -23 -8 -31 2 -37 18 -11 5 -40
-18 -40 -10 0 -27 -9 -36 -19 -15 -16 -15 -22 -5 -39 11 -18 10 -24 -4 -40
-12 -13 -16 -28 -12 -43 5 -19 0 -28 -25 -42 -31 -19 -37 -31 -20 -42 25 -15
11 -37 -83 -135 -28 -30 -36 -45 -32 -63 4 -16 -1 -29 -19 -47 -15 -13 -26
-32 -26 -43 0 -10 -14 -32 -31 -48 -31 -29 -31 -30 -13 -44 18 -14 17 -16 -19
-47 -28 -25 -37 -38 -31 -51 8 -22 -60 -97 -87 -97 -10 0 -27 -17 -40 -40 -13
-22 -33 -47 -46 -55 -13 -9 -23 -24 -23 -34 0 -10 -9 -26 -20 -36 -25 -23 -25
-31 0 -38 11 -3 20 -9 20 -14 -1 -9 -76 -63 -89 -63 -12 0 -70 -67 -83 -96 -8
-17 -8 -27 1 -38 9 -11 0 -26 -51 -79 -35 -36 -83 -77 -106 -92 -41 -25 -43
-28 -28 -44 15 -17 15 -19 0 -31 -12 -11 -17 -11 -23 -1 -6 9 -10 7 -14 -9 -3
-14 -12 -21 -24 -19 -26 4 -93 -40 -93 -60 0 -28 -95 -101 -177 -136 -24 -11
-43 -23 -43 -27 0 -5 9 -4 21 2 11 7 23 9 26 7 12 -12 -18 -41 -73 -71 -32
-18 -68 -47 -79 -64 -11 -17 -33 -36 -50 -42 -54 -21 -79 -34 -134 -70 -29
-19 -61 -39 -70 -45 -9 -5 -34 -26 -56 -45 -22 -20 -75 -53 -119 -75 -43 -21
-80 -45 -83 -52 -3 -7 -17 -13 -32 -13 -58 0 -51 -17 10 -24 34 -3 1162 -6
2505 -6 l2444 0 0 1329 c0 1055 -3 1330 -12 1334 -10 3 -10 9 0 29 23 43 -11
321 -44 359 -8 8 -14 25 -14 38 0 24 -57 79 -102 98 -15 7 -31 19 -34 28 -4 8
-18 15 -34 15 -15 0 -33 7 -40 15 -7 8 -23 15 -35 15 -12 0 -28 6 -34 14 -7 8
-38 18 -68 22 -43 5 -63 13 -84 35 -16 16 -35 29 -42 29 -8 0 -20 7 -27 15 -7
8 -19 15 -28 15 -8 0 -23 6 -31 14 -9 7 -38 19 -65 25 -66 16 -111 41 -174 95
-30 25 -59 46 -66 46 -7 0 -23 11 -36 25 -13 14 -29 25 -36 25 -7 0 -30 15
-53 34 -25 21 -57 37 -83 41 -43 8 -69 19 -100 43 -9 8 -21 11 -27 8 -5 -4
-25 3 -43 14 -18 11 -40 22 -48 26 -8 3 -34 14 -58 25 -23 10 -50 19 -60 19
-10 0 -28 7 -40 16 -12 8 -27 12 -32 9 -6 -4 -16 -3 -23 2 -18 14 -123 37
-135 29 -6 -4 -16 2 -21 13 -7 13 -30 24 -68 32 -32 7 -62 16 -68 21 -5 4 -28
8 -51 8 -26 0 -47 6 -55 16 -7 9 -33 25 -58 36 -25 11 -53 23 -62 28 -9 4 -22
4 -29 0 -9 -5 -23 2 -42 20 -15 16 -53 40 -84 54 -41 19 -82 52 -148 120 -162
167 -280 270 -355 309 -39 20 -79 37 -90 37 -11 0 -23 5 -26 10 -3 6 -16 10
-29 10 -13 0 -31 8 -40 19 -9 10 -35 21 -56 25 -22 3 -56 15 -75 26 -20 11
-44 20 -54 20 -10 0 -24 6 -30 14 -7 8 -31 15 -54 15 -23 1 -53 3 -67 5 -14 2
-46 5 -71 5 -32 1 -58 9 -83 26 -49 33 -93 33 -106 1 -13 -34 -25 -39 -60 -21
-33 17 -36 32 -18 81 12 35 1 89 -31 146 -12 21 -12 32 -3 50 18 37 25 88 25
176 0 74 -2 85 -21 98 -13 9 -22 26 -22 41 0 14 -11 48 -25 76 -29 57 -27 77
9 77 18 0 33 11 51 37 30 46 33 79 5 86 -22 6 -28 45 -9 64 13 13 31 126 30
187 -1 21 6 59 14 83 8 24 15 59 15 77 0 21 8 40 24 55 l23 22 33 -41 c18 -22
37 -39 43 -37 6 2 21 21 34 43 18 31 22 48 17 84 -3 25 -9 50 -12 55 -23 35
-29 75 -16 101 8 14 14 43 14 64 0 43 20 65 51 57 23 -6 47 12 68 54 9 18 24
29 45 32 86 14 121 51 117 123 -1 34 2 46 19 56 11 7 20 18 20 25 0 7 12 20
28 30 56 35 87 76 88 118 1 22 3 49 5 60 4 22 3 22 -76 5 -66 -14 -115 -5
-163 30 -38 27 -39 31 -35 73 4 34 -1 56 -20 97 -16 33 -23 59 -18 69 5 9 16
33 26 54 l19 38 -32 29 c-37 34 -39 43 -12 77 13 16 18 34 14 48 -3 13 -1 26
5 29 21 13 83 -13 114 -49 27 -30 41 -37 83 -42 59 -6 88 5 108 46 13 25 13
31 0 50 -8 11 -21 21 -28 21 -8 0 -16 7 -20 15 -3 8 -16 15 -29 15 -34 0 -45
17 -55 83 -7 46 -6 57 5 57 24 0 26 29 4 66 -18 29 -19 39 -9 57 7 12 12 45
13 72 1 28 5 62 9 77 10 35 -7 65 -44 73 -16 4 -38 17 -49 31 -20 26 -18 64 5
64 7 0 18 9 24 20 14 27 48 44 89 45 20 0 37 6 41 15 4 8 12 25 19 38 9 17 8
29 -3 56 -11 26 -12 48 -4 102 8 58 13 106 17 147 1 4 15 6 33 5 41 -4 51 27
17 53 -17 13 -35 16 -79 12 -51 -5 -58 -3 -62 15 -3 11 1 30 9 41 13 19 12 25
-8 54 -12 17 -38 47 -58 65 l-36 32 28 21 c27 20 27 22 21 97 -3 43 -11 80
-16 83 -10 7 14 63 32 74 17 10 11 33 -17 78 -23 35 -28 55 -31 117 -1 41 -4
91 -5 110 -2 30 1 35 18 32 11 -2 34 -17 52 -34 26 -25 37 -29 60 -23 15 3 35
13 44 21 15 13 19 11 43 -16 14 -17 26 -38 26 -45 0 -20 67 -68 85 -61 8 3 15
16 15 30 0 14 5 28 10 31 6 3 10 13 10 21 0 9 7 22 15 30 10 11 12 21 5 40
-13 34 -62 94 -77 94 -7 0 -13 8 -13 18 0 10 -5 23 -12 30 -7 7 -13 46 -14 95
-1 45 -6 101 -11 123 -8 35 -7 46 8 65 29 37 61 107 54 118 -11 18 32 33 54
19 18 -11 25 -8 56 22 22 21 33 40 30 50 -3 9 4 25 15 35 11 10 20 24 20 30 0
22 78 24 97 3 19 -21 43 -24 44 -5 3 40 -4 114 -12 129 -5 10 -18 18 -29 18
-10 0 -22 9 -25 20 -4 11 -21 40 -39 63 -29 39 -32 46 -20 62 8 10 14 30 14
44 0 14 9 37 20 51 11 14 20 30 20 35 0 20 154 140 180 140 23 0 25 4 24 40
-2 85 -22 143 -75 213 -18 24 -24 98 -13 156 5 25 9 27 35 22 22 -4 32 0 44
17 21 30 19 47 -12 79 -24 25 -25 30 -13 53 10 19 11 27 1 39 -16 19 -7 35 17
30 9 -2 22 -1 29 3 31 21 6 323 -27 323 -4 0 -15 -11 -24 -25 -9 -14 -23 -25
-31 -25 -20 0 -19 7 5 37 24 31 25 46 5 63 -24 20 -19 50 8 47 21 -2 22 1 20
66 0 37 -6 74 -13 82 -9 10 -10 42 -5 110 6 71 4 103 -5 120 -11 20 -10 26 4
41 21 20 14 59 -16 91 -16 17 -21 38 -24 109 -2 48 -7 90 -12 93 -23 17 -42
62 -33 79 15 27 -6 105 -46 175 -58 101 -64 115 -73 170 -9 56 -29 117 -47
138 -6 8 -13 35 -17 60 -4 26 -22 76 -40 111 -18 35 -38 86 -45 114 -17 70
-57 149 -113 223 -26 35 -48 69 -48 75 0 6 -9 22 -20 36 -11 14 -20 40 -20 58
0 44 -29 99 -85 160 -68 75 -81 94 -88 129 -12 60 -146 235 -236 307 -34 27
-61 52 -61 55 0 13 -112 137 -144 161 -19 14 -53 49 -76 78 -23 29 -52 57 -66
62 -13 5 -24 14 -24 18 0 5 -21 29 -47 53 -25 24 -67 64 -91 89 -25 25 -69 63
-97 85 -103 80 -151 120 -195 167 -48 51 -210 158 -240 158 -10 0 -58 38 -106
85 -49 47 -93 85 -97 85 -5 0 -40 30 -78 67 -38 36 -77 71 -88 77 -64 37 -143
76 -153 76 -6 0 -19 6 -27 13 -9 8 -52 19 -96 26 -86 14 -155 42 -223 93 -50
37 -77 31 -77 -18 0 -38 -31 -45 -57 -13 -47 60 -52 70 -37 80 11 7 11 9 -3 9
-10 0 -18 -4 -18 -10 0 -14 -67 -13 -76 1 -3 6 -1 16 5 22 15 15 14 50 -1 65
-7 7 -29 12 -49 12 -20 0 -42 6 -48 14 -6 7 -26 16 -43 20 -17 3 -40 14 -50
23 -13 11 -42 17 -101 20 -58 3 -98 11 -138 29 -32 13 -76 24 -101 24 -24 0
-52 6 -63 14 -11 7 -38 16 -60 20 -55 11 -174 51 -188 65 -6 6 -45 11 -87 11
-48 0 -83 5 -95 14 -40 28 -161 39 -297 27 -103 -9 -141 -8 -205 4 -116 21
-330 45 -403 45 -51 0 -78 6 -128 30 -71 33 -120 37 -172 14z m-1910 -12368
c6 -8 21 -16 33 -18 19 -3 22 -10 25 -61 3 -48 6 -57 20 -55 12 2 18 -5 20
-24 2 -16 9 -28 16 -28 7 0 29 -18 49 -41 36 -39 36 -41 20 -66 -16 -23 -15
-27 2 -61 11 -21 33 -51 50 -68 30 -30 30 -33 28 -116 -2 -89 11 -128 44 -128
12 0 14 -6 9 -27 -4 -16 -8 -37 -9 -48 -1 -11 -11 -39 -22 -62 -17 -39 -22
-43 -56 -43 -30 0 -43 7 -72 40 -68 74 -88 116 -94 193 -7 77 -17 100 -75 160
-21 22 -35 43 -33 48 3 4 -4 25 -15 46 -17 31 -20 54 -19 128 2 50 8 111 15
137 6 26 10 49 7 52 -6 6 27 56 37 56 4 0 13 -6 20 -14z m6910 -91 c8 -9 10
-29 7 -49 -4 -28 -2 -35 15 -39 17 -5 19 -11 13 -39 -4 -18 -18 -44 -31 -59
-13 -14 -24 -35 -24 -47 0 -13 -6 -22 -15 -22 -8 0 -15 -4 -15 -10 0 -13 23
-13 36 0 11 11 54 -14 54 -33 0 -7 14 -25 30 -41 35 -34 37 -54 11 -88 -12
-14 -19 -38 -18 -60 1 -23 -6 -45 -17 -57 -10 -11 -15 -24 -12 -29 16 -26 -6
-41 -54 -39 -34 1 -54 -3 -67 -16 -27 -24 -38 -8 -12 19 l21 22 -23 31 c-12
17 -26 31 -29 31 -15 0 -37 -38 -55 -93 -13 -42 -26 -62 -45 -72 -22 -11 -26
-19 -22 -43 3 -21 -1 -31 -13 -36 -22 -8 -36 1 -29 19 3 8 -6 25 -20 38 -14
13 -26 30 -26 36 0 6 -7 14 -15 17 -8 4 -15 15 -15 25 0 15 7 18 37 17 20 -1
39 4 41 10 2 7 21 12 41 12 31 0 40 5 49 25 6 14 9 32 5 40 -3 9 4 26 17 40
22 23 19 58 -3 36 -6 -6 -19 -11 -29 -11 -15 0 -16 3 -6 25 9 21 8 28 -7 45
-21 23 -11 60 30 115 21 27 25 41 20 65 -6 26 -3 31 19 40 29 11 47 41 28 48
-7 2 -12 22 -12 43 0 33 3 40 18 38 22 -4 78 26 85 46 8 19 21 19 37 0z m-128
-799 c-2 -17 3 -29 13 -33 12 -4 15 -13 11 -30 -5 -19 -1 -25 19 -33 41 -15
28 -41 -28 -54 -16 -4 -33 -17 -39 -32 -8 -17 -16 -23 -27 -17 -9 4 -34 7 -56
8 -59 2 -62 3 -69 21 -5 14 -4 15 9 4 9 -7 19 -10 22 -6 7 6 -9 21 -31 29 -16
5 5 47 23 47 10 0 30 9 45 21 28 22 30 44 5 44 -17 0 -19 27 -3 32 6 2 14 -6
17 -17 5 -21 7 -21 31 -5 14 9 28 26 31 36 9 29 31 17 27 -15z"/>
<path d="M5263 8691 c-10 -16 -25 -32 -34 -34 -21 -6 -59 -89 -59 -129 0 -32
-25 -88 -40 -88 -23 0 -51 -63 -62 -141 l-12 -82 29 -23 c24 -19 37 -22 75
-17 35 4 49 1 59 -11 7 -9 24 -16 37 -16 46 0 56 -104 19 -193 -22 -52 -19
-61 21 -80 30 -15 34 -20 24 -33 -7 -8 -10 -17 -6 -21 3 -3 6 -1 6 7 0 9 4 9
13 2 11 -9 14 -55 9 -127 -3 -28 -60 -49 -111 -40 -46 8 -65 -10 -27 -25 14
-5 26 -14 26 -20 0 -5 7 -10 15 -10 8 0 15 -6 15 -12 0 -9 3 -8 10 2 8 12 12
11 30 -8 26 -27 60 -28 90 -2 13 11 27 20 31 20 5 0 26 17 48 38 31 30 38 42
34 63 -3 15 4 46 15 71 15 36 26 46 50 51 35 7 112 72 112 94 0 7 13 22 30 31
17 10 43 41 61 75 29 55 30 59 15 83 -29 44 7 84 87 95 49 7 89 22 146 54 17
9 31 11 48 4 14 -5 67 -7 119 -5 82 4 97 3 113 -13 24 -24 84 -33 139 -20 32
7 48 6 58 -2 8 -7 41 -10 81 -8 83 4 134 -18 151 -63 11 -29 14 -30 49 -24 21
3 48 6 59 6 18 0 23 8 28 44 8 52 16 60 74 75 39 11 45 17 73 74 29 61 29 62
11 87 -11 14 -38 31 -63 38 -65 19 -74 26 -77 58 -2 19 -19 45 -50 76 -46 46
-48 47 -152 63 -143 22 -200 24 -235 9 -16 -7 -54 -22 -83 -33 -30 -11 -63
-32 -74 -46 -11 -14 -25 -25 -33 -25 -7 0 -37 -26 -67 -59 -30 -32 -63 -63
-74 -68 -10 -6 -84 -9 -164 -9 -145 1 -189 10 -282 57 -10 5 -27 9 -38 9 -11
0 -40 18 -64 40 -24 22 -48 40 -54 40 -6 0 -39 25 -73 55 -34 30 -70 55 -80
55 -10 0 -22 6 -26 14 -4 7 -18 17 -31 20 -18 6 -25 2 -39 -23z"/>
<path d="M4991 7650 c-24 -11 -51 -20 -61 -20 -31 0 -50 -11 -50 -31 0 -10
-10 -25 -22 -33 -18 -13 -19 -17 -7 -32 11 -14 11 -18 -2 -28 -9 -6 -19 -25
-22 -41 -19 -99 -27 -110 -90 -120 -36 -7 -67 -27 -67 -45 0 -5 11 -21 24 -37
23 -28 27 -29 78 -21 136 20 128 16 153 72 17 39 20 57 13 77 -8 22 -4 35 16
68 15 23 30 41 35 41 5 0 38 17 75 37 75 42 84 66 41 108 -29 30 -56 31 -114
5z"/>
<path d="M6997 7113 c-4 -3 -71 -8 -150 -9 -177 -3 -163 -2 -179 -17 -26 -26
-77 -38 -223 -52 -33 -4 -69 -10 -80 -15 -11 -5 -55 -23 -97 -40 -43 -18 -80
-36 -84 -41 -12 -19 -97 -9 -158 20 -43 20 -84 30 -139 34 -43 4 -91 14 -108
22 -23 13 -37 14 -67 5 -20 -5 -122 -10 -227 -10 -179 0 -194 -2 -250 -25 -65
-27 -86 -30 -101 -15 -5 5 -23 9 -39 9 -17 0 -48 -1 -70 -1 -39 -1 -73 10
-108 34 -14 11 -19 10 -27 -2 -6 -9 -21 -14 -39 -12 -25 3 -30 -1 -35 -25 -10
-52 -1 -108 24 -143 31 -42 67 -76 103 -96 15 -8 43 -31 61 -52 l34 -36 110 1
c82 1 116 5 134 17 17 11 53 16 124 18 l99 3 -3 28 c-2 17 2 27 10 28 7 0 49
0 94 -1 66 -1 87 3 117 20 39 23 146 43 162 30 11 -9 89 3 126 20 20 9 34 8
69 -5 52 -18 294 -36 390 -28 150 11 317 2 370 -21 9 -3 43 5 78 19 69 28 96
31 132 12 17 -9 33 -11 52 -5 18 7 35 5 55 -5 49 -25 95 -27 163 -9 36 10 76
25 90 34 14 9 47 20 73 23 37 6 58 17 94 50 l47 42 -22 31 c-13 17 -27 44 -33
59 -10 31 -45 46 -151 63 -31 5 -66 14 -77 20 -11 6 -32 8 -46 4 -14 -3 -31
-1 -39 5 -11 9 -22 7 -51 -9 l-37 -21 -62 19 c-98 32 -102 33 -109 25z"/>
<path d="M9198 1745 c-20 -19 -50 -37 -65 -40 -82 -18 -113 -42 -113 -87 0
-21 -6 -31 -20 -35 -11 -3 -20 -9 -20 -13 0 -9 38 -17 60 -13 23 5 63 70 64
103 2 54 46 34 46 -21 0 -16 7 -19 43 -19 30 0 48 -6 60 -20 9 -11 21 -20 25
-20 26 0 57 75 45 107 -3 7 -17 13 -32 13 -35 0 -43 8 -31 31 11 20 3 49 -14
49 -6 0 -28 -16 -48 -35z"/>
</g>
</svg>
